<?xml version="1.0" encoding="UTF-8" standalone="no"?>
<svg width="1652px" height="737px" viewBox="0 0 1652 737" version="1.1" xmlns="http://www.w3.org/2000/svg" xmlns:xlink="http://www.w3.org/1999/xlink" xmlns:sketch="http://www.bohemiancoding.com/sketch/ns">
    <title>baikal 2</title>
    <description>Created with Sketch (http://www.bohemiancoding.com/sketch)</description>
    <defs></defs>
    <g id="Page-1" stroke="none" stroke-width="1" fill="none" fill-rule="evenodd" sketch:type="MSPage">
        <g id="Fond-sombre" sketch:type="MSLayerGroup" transform="translate(-240.000000, 712.000000)" fill="#4A4A4A">
            <g id="Matriochka-copy" sketch:type="MSShapeGroup">
                <g id="Oval-8-copy-+-Oval-8-copy-4" transform="translate(188.000000, 0.000000)">
                    <path d="M297.349785,216.673338 C238.604806,221.043506 188.976084,258.19305 166.650215,309.915029 C225.395194,305.54486 275.023916,268.395317 297.349785,216.673338 Z" id="Oval-8-copy"></path>
                    <path d="M448.693664,304.09594 C423.652085,252.111034 370.510241,216.241611 309,216.241611 C293.827569,216.241611 279.164302,218.424038 265.306336,222.492427 C290.347915,274.477333 343.489759,310.346756 405,310.346756 C420.172431,310.346756 434.835698,308.164328 448.693664,304.09594 Z" id="Oval-8-copy"></path>
                </g>
            </g>
        </g>
        <g id="Fond-clair" sketch:type="MSLayerGroup" transform="translate(-240.000000, -158.000000)">
            <g id="Matriochka" sketch:type="MSShapeGroup">
                <polygon id="Polygon-1" fill="#D0011B" points="689.543945 316.727539 745.176758 612.861253 242.84082 612.861253 298.43457 316.727539 "></polygon>
                <ellipse id="Oval-8-copy" fill="#D0011B" cx="494" cy="649.725951" rx="254" ry="245.274049"></ellipse>
                <ellipse id="Oval-8" fill="#D0011B" cx="494" cy="358.400447" rx="200" ry="200.223714"></ellipse>
                <path d="M243.164261,688.550418 C262.434736,805.562572 367.401165,895 494,895 C620.598835,895 725.565264,805.562572 744.835739,688.550418 L744.83574,688.550414 C741.242621,688.696035 737.630204,688.769575 734,688.769575 C622.924207,688.769575 528.501099,619.920403 494,524.004903 C459.498901,619.920403 365.075793,688.769575 254,688.769575 C250.369796,688.769575 246.757379,688.696035 243.16426,688.550414 Z" id="Oval-8-copy-2" fill="#4A4A4A"></path>
                <path d="M497,526.588367 C582.60414,526.588367 652,457.114883 652,371.414989 C652,285.715094 582.60414,216.241611 497,216.241611 C411.39586,216.241611 342,285.715094 342,371.414989 C342,457.114883 411.39586,526.588367 497,526.588367 Z" id="Oval-8-copy" fill="#FFFFFF"></path>
                <g id="Oval-8-copy-+-Oval-8-copy-4" transform="translate(188.000000, 0.000000)" fill="#4A4A4A">
                    <path d="M297.349785,216.673338 C238.604806,221.043506 188.976084,258.19305 166.650215,309.915029 C225.395194,305.54486 275.023916,268.395317 297.349785,216.673338 Z" id="Oval-8-copy"></path>
                    <path d="M448.693664,304.09594 C423.652085,252.111034 370.510241,216.241611 309,216.241611 C293.827569,216.241611 279.164302,218.424038 265.306336,222.492427 C290.347915,274.477333 343.489759,310.346756 405,310.346756 C420.172431,310.346756 434.835698,308.164328 448.693664,304.09594 Z" id="Oval-8-copy"></path>
                </g>
                <g id="Oval-8-+-Oval-8-copy" transform="translate(346.000000, 348.389262)" fill="#000000">
                    <path d="M124.702353,38.6766816 C119.555986,16.5138003 99.7043418,0 76,0 C52.2956582,0 32.4440139,16.5138003 27.297647,38.6766816 C40.4864717,29.530953 57.4686888,24.0268456 76,24.0268456 C94.5313112,24.0268456 111.513528,29.530953 124.702353,38.6766816 Z" id="Oval-8"></path>
                    <path d="M268.702353,38.6766816 C263.555986,16.5138003 243.704342,0 220,0 C196.295658,0 176.444014,16.5138003 171.297647,38.6766816 C184.486472,29.530953 201.468689,24.0268456 220,24.0268456 C238.531311,24.0268456 255.513528,29.530953 268.702353,38.6766816 Z" id="Oval-8-copy"></path>
                </g>
                <path d="M494,486.543624 C514.986822,486.543624 532,476.466986 532,464.036822 C532,451.606657 514.986822,464.036822 494,464.036822 C473.013178,464.036822 456,451.606657 456,464.036822 C456,476.466986 473.013178,486.543624 494,486.543624 Z" id="Oval-8-copy-3" fill="#000000" transform="translate(494.000000, 472.527964) scale(-1, 1) translate(-494.000000, -472.527964) "></path>
                <path d="M407,448.501119 C420.254835,448.501119 431,437.743934 431,424.474273 C431,411.204612 420.254835,400.447427 407,400.447427 C393.745165,400.447427 383,411.204612 383,424.474273 C383,437.743934 393.745165,448.501119 407,448.501119 Z" id="Oval-8-copy" fill="#D0011B"></path>
                <path d="M580,448.501119 C593.254835,448.501119 604,437.743934 604,424.474273 C604,411.204612 593.254835,400.447427 580,400.447427 C566.745165,400.447427 556,411.204612 556,424.474273 C556,437.743934 566.745165,448.501119 580,448.501119 Z" id="Oval-8-copy-2" fill="#D0011B"></path>
            </g>
            <g id="誰-+-Ba誰kal" transform="translate(841.000000, 403.000000)" sketch:type="MSShapeGroup">
                <path d="M444.8,63.6 C438.666636,63.6 433.26669,61.400022 428.6,57 C423.93331,52.599978 421.6,46.933368 421.6,40 C421.6,33.066632 423.93331,27.400022 428.6,23 C433.26669,18.599978 438.666636,16.4 444.8,16.4 C450.933364,16.4 456.33331,18.599978 461,23 C465.66669,27.400022 468,33.066632 468,40 C468,46.933368 465.66669,52.599978 461,57 C456.33331,61.400022 450.933364,63.6 444.8,63.6 Z M520.8,63.6 C514.666636,63.6 509.26669,61.400022 504.6,57 C499.93331,52.599978 497.6,46.933368 497.6,40 C497.6,33.066632 499.93331,27.400022 504.6,23 C509.26669,18.599978 514.666636,16.4 520.8,16.4 C526.933364,16.4 532.33331,18.599978 537,23 C541.66669,27.400022 544,33.066632 544,40 C544,46.933368 541.66669,52.599978 537,57 C532.33331,61.400022 526.933364,63.6 520.8,63.6 Z" id="誰" fill="#D0011B"></path>
                <path d="M75.2,312.4 C69.599972,312.4 63.533366,312.266668 57,312 C50.466634,311.733332 43.933366,311.333336 37.4,310.8 C30.866634,310.266664 24.400032,309.600004 18,308.8 C11.599968,307.999996 5.73336,306.93334 0.4,305.6 L0.4,36.8 C5.73336,35.46666 11.599968,34.400004 18,33.6 C24.400032,32.799996 30.866634,32.133336 37.4,31.6 C43.933366,31.066664 50.399968,30.666668 56.8,30.4 C63.200032,30.133332 69.199972,30 74.8,30 C90.80008,30 105.79993,31.199988 119.8,33.6 C133.80007,36.000012 145.933282,40.066638 156.2,45.8 C166.466718,51.533362 174.533304,59.06662 180.4,68.4 C186.266696,77.73338 189.2,89.199932 189.2,102.8 C189.2,118.000076 185.600036,130.466618 178.4,140.2 C171.199964,149.933382 161.60006,157.199976 149.6,162 C165.866748,166.800024 178.799952,174.399948 188.4,184.8 C198.000048,195.200052 202.8,209.866572 202.8,228.8 C202.8,256.533472 192.600102,277.39993 172.2,291.4 C151.799898,305.40007 119.466888,312.4 75.2,312.4 Z M38.8,180.8 L38.8,278.4 C41.733348,278.666668 45.19998,278.933332 49.2,279.2 C52.666684,279.466668 56.73331,279.666666 61.4,279.8 C66.06669,279.933334 71.466636,280 77.6,280 C89.066724,280 99.933282,279.266674 110.2,277.8 C120.466718,276.333326 129.466628,273.733352 137.2,270 C144.933372,266.266648 151.13331,261.0667 155.8,254.4 C160.46669,247.7333 162.8,239.333384 162.8,229.2 C162.8,220.133288 161.066684,212.466698 157.6,206.2 C154.133316,199.933302 149.133366,194.933352 142.6,191.2 C136.066634,187.466648 128.266712,184.800008 119.2,183.2 C110.133288,181.599992 100.000056,180.8 88.8,180.8 L38.8,180.8 Z M38.8,149.6 L79.6,149.6 C89.200048,149.6 98.266624,148.93334 106.8,147.6 C115.333376,146.26666 122.733302,143.866684 129,140.4 C135.266698,136.933316 140.199982,132.400028 143.8,126.8 C147.400018,121.199972 149.2,114.133376 149.2,105.6 C149.2,97.59996 147.333352,90.866694 143.6,85.4 C139.866648,79.933306 134.733366,75.53335 128.2,72.2 C121.666634,68.86665 114.000044,66.400008 105.2,64.8 C96.399956,63.199992 87.066716,62.4 77.2,62.4 C67.333284,62.4 59.600028,62.533332 54,62.8 C48.399972,63.066668 43.333356,63.466664 38.8,64 L38.8,149.6 Z M322.4,96.8 C337.333408,96.8 349.933282,98.733314 360.2,102.6 C370.466718,106.466686 378.733302,111.933298 385,119 C391.266698,126.066702 395.73332,134.466618 398.4,144.2 C401.06668,153.933382 402.4,164.666608 402.4,176.4 L402.4,306.4 C399.199984,306.933336 394.733362,307.666662 389,308.6 C383.266638,309.533338 376.800036,310.399996 369.6,311.2 C362.399964,312.000004 354.600042,312.73333 346.2,313.4 C337.799958,314.06667 329.466708,314.4 321.2,314.4 C309.466608,314.4 298.666716,313.200012 288.8,310.8 C278.933284,308.399988 270.400036,304.600026 263.2,299.4 C255.999964,294.199974 250.40002,287.333376 246.4,278.8 C242.39998,270.266624 240.4,260.00006 240.4,248 C240.4,236.533276 242.73331,226.666708 247.4,218.4 C252.06669,210.133292 258.39996,203.466692 266.4,198.4 C274.40004,193.333308 283.73328,189.600012 294.4,187.2 C305.06672,184.799988 316.266608,183.6 328,183.6 C331.733352,183.6 335.59998,183.799998 339.6,184.2 C343.60002,184.600002 347.399982,185.13333 351,185.8 C354.600018,186.46667 357.73332,187.066664 360.4,187.6 C363.06668,188.133336 364.933328,188.533332 366,188.8 L366,178.4 C366,172.266636 365.33334,166.20003 364,160.2 C362.66666,154.19997 360.266684,148.86669 356.8,144.2 C353.333316,139.53331 348.60003,135.800014 342.6,133 C336.59997,130.199986 328.800048,128.8 319.2,128.8 C306.933272,128.8 296.200046,129.666658 287,131.4 C277.799954,133.133342 270.933356,134.933324 266.4,136.8 L262,106 C266.800024,103.866656 274.799944,101.80001 286,99.8 C297.200056,97.79999 309.333268,96.8 322.4,96.8 Z M325.6,283.2 C334.400044,283.2 342.199966,283.000002 349,282.6 C355.800034,282.199998 361.466644,281.466672 366,280.4 L366,218.4 C363.33332,217.06666 359.00003,215.933338 353,215 C346.99997,214.066662 339.733376,213.6 331.2,213.6 C325.599972,213.6 319.666698,213.999996 313.4,214.8 C307.133302,215.600004 301.400026,217.266654 296.2,219.8 C290.999974,222.333346 286.666684,225.799978 283.2,230.2 C279.733316,234.600022 278,240.399964 278,247.6 C278,260.9334 282.266624,270.199974 290.8,275.4 C299.333376,280.600026 310.93326,283.2 325.6,283.2 Z M501.2,310 L464,310 L464,102 L501.2,102 L501.2,310 Z M640.4,195.6 C648.40004,201.733364 656.866622,209.333288 665.8,218.4 C674.733378,227.466712 683.53329,237.266614 692.2,247.8 C700.86671,258.333386 709.066628,268.999946 716.8,279.8 C724.533372,290.600054 731.06664,300.66662 736.4,310 L692.8,310 C687.199972,300.66662 680.73337,291.133382 673.4,281.4 C666.06663,271.666618 658.40004,262.333378 650.4,253.4 C642.39996,244.466622 634.266708,236.266704 626,228.8 C617.733292,221.333296 609.866704,215.066692 602.4,210 L602.4,310 L565.2,310 L565.2,6 L602.4,-0.4 L602.4,189.2 L623.6,168 C631.333372,160.266628 638.933296,152.40004 646.4,144.4 C653.866704,136.39996 660.9333,128.73337 667.6,121.4 C674.2667,114.06663 679.999976,107.600028 684.8,102 L728.4,102 C722.266636,108.6667 715.600036,115.99996 708.4,124 C701.199964,132.00004 693.733372,140.066626 686,148.2 C678.266628,156.333374 670.466706,164.466626 662.6,172.6 C654.733294,180.733374 647.333368,188.399964 640.4,195.6 Z M841.2,96.8 C856.133408,96.8 868.733282,98.733314 879,102.6 C889.266718,106.466686 897.533302,111.933298 903.8,119 C910.066698,126.066702 914.53332,134.466618 917.2,144.2 C919.86668,153.933382 921.2,164.666608 921.2,176.4 L921.2,306.4 C917.999984,306.933336 913.533362,307.666662 907.8,308.6 C902.066638,309.533338 895.600036,310.399996 888.4,311.2 C881.199964,312.000004 873.400042,312.73333 865,313.4 C856.599958,314.06667 848.266708,314.4 840,314.4 C828.266608,314.4 817.466716,313.200012 807.6,310.8 C797.733284,308.399988 789.200036,304.600026 782,299.4 C774.799964,294.199974 769.20002,287.333376 765.2,278.8 C761.19998,270.266624 759.2,260.00006 759.2,248 C759.2,236.533276 761.53331,226.666708 766.2,218.4 C770.86669,210.133292 777.19996,203.466692 785.2,198.4 C793.20004,193.333308 802.53328,189.600012 813.2,187.2 C823.86672,184.799988 835.066608,183.6 846.8,183.6 C850.533352,183.6 854.39998,183.799998 858.4,184.2 C862.40002,184.600002 866.199982,185.13333 869.8,185.8 C873.400018,186.46667 876.53332,187.066664 879.2,187.6 C881.86668,188.133336 883.733328,188.533332 884.8,188.8 L884.8,178.4 C884.8,172.266636 884.13334,166.20003 882.8,160.2 C881.46666,154.19997 879.066684,148.86669 875.6,144.2 C872.133316,139.53331 867.40003,135.800014 861.4,133 C855.39997,130.199986 847.600048,128.8 838,128.8 C825.733272,128.8 815.000046,129.666658 805.8,131.4 C796.599954,133.133342 789.733356,134.933324 785.2,136.8 L780.8,106 C785.600024,103.866656 793.599944,101.80001 804.8,99.8 C816.000056,97.79999 828.133268,96.8 841.2,96.8 Z M844.4,283.2 C853.200044,283.2 860.999966,283.000002 867.8,282.6 C874.600034,282.199998 880.266644,281.466672 884.8,280.4 L884.8,218.4 C882.13332,217.06666 877.80003,215.933338 871.8,215 C865.79997,214.066662 858.533376,213.6 850,213.6 C844.399972,213.6 838.466698,213.999996 832.2,214.8 C825.933302,215.600004 820.200026,217.266654 815,219.8 C809.799974,222.333346 805.466684,225.799978 802,230.2 C798.533316,234.600022 796.8,240.399964 796.8,247.6 C796.8,260.9334 801.066624,270.199974 809.6,275.4 C818.133376,280.600026 829.73326,283.2 844.4,283.2 Z M1045.2,314 C1022.26655,313.466664 1006.00005,308.53338 996.4,299.2 C986.799952,289.86662 982,275.333432 982,255.6 L982,6 L1019.2,-0.4 L1019.2,249.6 C1019.2,255.733364 1019.73333,260.79998 1020.8,264.8 C1021.86667,268.80002 1023.59999,271.999988 1026,274.4 C1028.40001,276.800012 1031.59998,278.599994 1035.6,279.8 C1039.60002,281.000006 1044.5333,281.999996 1050.4,282.8 L1045.2,314 Z" id="Ba誰kal" fill="#000000"></path>
            </g>
        </g>
    </g>
</svg>