<?xml version="1.0" encoding="UTF-8" standalone="no"?>
<svg width="508px" height="737px" viewBox="0 0 508 737" version="1.1" xmlns="http://www.w3.org/2000/svg" xmlns:xlink="http://www.w3.org/1999/xlink" xmlns:sketch="http://www.bohemiancoding.com/sketch/ns">
    <title>matriochka</title>
    <description>Created with Sketch (http://www.bohemiancoding.com/sketch)</description>
    <defs></defs>
    <g id="Page-1" stroke="none" stroke-width="1" fill="none" fill-rule="evenodd" sketch:type="MSPage">
        <g id="Fond-sombre" sketch:type="MSLayerGroup" transform="translate(-240.000000, 712.000000)" fill="#4A4A4A">
            <g id="Matriochka-copy" sketch:type="MSShapeGroup">
                <g id="Oval-8-copy-+-Oval-8-copy-4" transform="translate(188.000000, 0.000000)">
                    <path d="M297.349785,216.673338 C238.604806,221.043506 188.976084,258.19305 166.650215,309.915029 C225.395194,305.54486 275.023916,268.395317 297.349785,216.673338 Z" id="Oval-8-copy"></path>
                    <path d="M448.693664,304.09594 C423.652085,252.111034 370.510241,216.241611 309,216.241611 C293.827569,216.241611 279.164302,218.424038 265.306336,222.492427 C290.347915,274.477333 343.489759,310.346756 405,310.346756 C420.172431,310.346756 434.835698,308.164328 448.693664,304.09594 Z" id="Oval-8-copy"></path>
                </g>
            </g>
        </g>
        <g id="Fond-clair" sketch:type="MSLayerGroup" transform="translate(-240.000000, -158.000000)">
            <g id="Matriochka" sketch:type="MSShapeGroup">
                <polygon id="Polygon-1" fill="#D0011B" points="689.543945 316.727539 745.176758 612.861253 242.84082 612.861253 298.43457 316.727539 "></polygon>
                <ellipse id="Oval-8-copy" fill="#D0011B" cx="494" cy="649.725951" rx="254" ry="245.274049"></ellipse>
                <ellipse id="Oval-8" fill="#D0011B" cx="494" cy="358.400447" rx="200" ry="200.223714"></ellipse>
                <path d="M243.164261,688.550418 C262.434736,805.562572 367.401165,895 494,895 C620.598835,895 725.565264,805.562572 744.835739,688.550418 L744.83574,688.550414 C741.242621,688.696035 737.630204,688.769575 734,688.769575 C622.924207,688.769575 528.501099,619.920403 494,524.004903 C459.498901,619.920403 365.075793,688.769575 254,688.769575 C250.369796,688.769575 246.757379,688.696035 243.16426,688.550414 Z" id="Oval-8-copy-2" fill="#4A4A4A"></path>
                <path d="M497,526.588367 C582.60414,526.588367 652,457.114883 652,371.414989 C652,285.715094 582.60414,216.241611 497,216.241611 C411.39586,216.241611 342,285.715094 342,371.414989 C342,457.114883 411.39586,526.588367 497,526.588367 Z" id="Oval-8-copy" fill="#FFFFFF"></path>
                <g id="Oval-8-copy-+-Oval-8-copy-4" transform="translate(188.000000, 0.000000)" fill="#4A4A4A">
                    <path d="M297.349785,216.673338 C238.604806,221.043506 188.976084,258.19305 166.650215,309.915029 C225.395194,305.54486 275.023916,268.395317 297.349785,216.673338 Z" id="Oval-8-copy"></path>
                    <path d="M448.693664,304.09594 C423.652085,252.111034 370.510241,216.241611 309,216.241611 C293.827569,216.241611 279.164302,218.424038 265.306336,222.492427 C290.347915,274.477333 343.489759,310.346756 405,310.346756 C420.172431,310.346756 434.835698,308.164328 448.693664,304.09594 Z" id="Oval-8-copy"></path>
                </g>
                <g id="Oval-8-+-Oval-8-copy" transform="translate(346.000000, 348.389262)" fill="#000000">
                    <path d="M124.702353,38.6766816 C119.555986,16.5138003 99.7043418,0 76,0 C52.2956582,0 32.4440139,16.5138003 27.297647,38.6766816 C40.4864717,29.530953 57.4686888,24.0268456 76,24.0268456 C94.5313112,24.0268456 111.513528,29.530953 124.702353,38.6766816 Z" id="Oval-8"></path>
                    <path d="M268.702353,38.6766816 C263.555986,16.5138003 243.704342,0 220,0 C196.295658,0 176.444014,16.5138003 171.297647,38.6766816 C184.486472,29.530953 201.468689,24.0268456 220,24.0268456 C238.531311,24.0268456 255.513528,29.530953 268.702353,38.6766816 Z" id="Oval-8-copy"></path>
                </g>
                <path d="M494,486.543624 C514.986822,486.543624 532,476.466986 532,464.036822 C532,451.606657 514.986822,464.036822 494,464.036822 C473.013178,464.036822 456,451.606657 456,464.036822 C456,476.466986 473.013178,486.543624 494,486.543624 Z" id="Oval-8-copy-3" fill="#000000" transform="translate(494.000000, 472.527964) scale(-1, 1) translate(-494.000000, -472.527964) "></path>
                <path d="M407,448.501119 C420.254835,448.501119 431,437.743934 431,424.474273 C431,411.204612 420.254835,400.447427 407,400.447427 C393.745165,400.447427 383,411.204612 383,424.474273 C383,437.743934 393.745165,448.501119 407,448.501119 Z" id="Oval-8-copy" fill="#D0011B"></path>
                <path d="M580,448.501119 C593.254835,448.501119 604,437.743934 604,424.474273 C604,411.204612 593.254835,400.447427 580,400.447427 C566.745165,400.447427 556,411.204612 556,424.474273 C556,437.743934 566.745165,448.501119 580,448.501119 Z" id="Oval-8-copy-2" fill="#D0011B"></path>
            </g>
        </g>
    </g>
</svg>